<?xml version="1.0" encoding="UTF-8"?>
<svg xmlns="http://www.w3.org/2000/svg" viewBox="0 0 997.026 948.228">
  <g id="a" data-name="star">
    <polygon points="498.513 3.694 642.025 326.64 993.513 363.332 730.72 599.616 804.44 945.24 498.513 768.325 192.586 945.24 266.306 599.616 3.513 363.332 355.001 326.64 498.513 3.694" fill="#eebe1c" stroke="#fff" stroke-miterlimit="10" stroke-width="3"/>
  </g>
  <g id="b" data-name="starboy">
    <g>
      <path d="m176.458,515.42c-16.756,0-50.552-6.531-53.959-7.668v-53.391c5.964,6.532,32.943,19.596,47.995,19.596,15.62,0,30.956-1.988,30.956-15.904,0-10.224-1.988-15.052-11.076-18.744-7.1-3.124-19.88-7.668-26.979-10.508-18.744-7.384-38.908-15.904-38.908-57.367,0-42.316,43.452-59.071,104.227-59.071h1.136c14.484,0,45.724,4.828,49.416,5.68v49.7c-4.544-4.26-25.844-15.62-39.76-15.62h-1.42c-12.212.852-31.523-1.988-31.523,13.632,0,7.952,2.556,12.212,9.94,15.052,3.692,1.42,13.632,6.532,17.892,7.668,7.1,1.704,14.484,5.112,19.028,6.532,17.892,5.68,34.932,15.903,34.932,56.231,0,39.759-38.908,64.183-111.895,64.183Z" fill="#fff" stroke="#eebe1c" stroke-miterlimit="10" stroke-width="3"/>
      <path d="m426.093,352.407l.284,157.333h-83.779l-.284-157.618c-5.396,0-26.979,5.396-45.155,9.088,0-7.952-.284-42.883-.284-47.144,5.964.284,51.12.852,76.111,1.136h7.384c28.116,0,86.051-.568,91.163-.852l.284,46.007c-17.608-3.692-40.328-7.952-45.724-7.952Z" fill="#fff" stroke="#eebe1c" stroke-miterlimit="10" stroke-width="3"/>
      <path d="m575.193,509.74c-.284-3.408-.284-14.768-5.964-47.995h-40.044c-5.111,32.375-3.407,32.092-5.964,47.995h-65.887c2.84-11.644,36.352-161.31,43.451-194.253l123.539.284,42.883,193.969h-92.015Zm-25.56-166.421c-7.952,30.104-9.372,57.935-13.348,81.507l26.411-.284c-4.26-30.104-9.372-66.171-13.063-81.223Z" fill="#fff" stroke="#eebe1c" stroke-miterlimit="10" stroke-width="3"/>
      <path d="m787.907,509.74l-23.855-78.667-5.396-.568c0,7.384.284,79.234.284,79.234h-83.778v-196.241h129.786c28.399,0,66.739,14.768,66.739,56.515,0,33.796-21.868,47.712-34.647,49.7,15.619,35.5,40.896,83.211,43.735,90.026h-92.867Zm-15.903-162.446h-2.272c-4.544,0-10.792.568-10.792.568v51.119c3.692,0,1.988,1.136,9.088,1.136,13.064,0,19.88-8.52,19.88-28.4,0-15.904-5.964-23.572-15.903-24.424Z" fill="#fff" stroke="#eebe1c" stroke-miterlimit="10" stroke-width="3"/>
      <path d="m306.528,722.74h-118.995l.284-196.241,116.154.283c28.116,0,73.271,6.816,73.271,45.724,0,30.104-27.832,39.476-47.711,44.02,27.264,3.692,57.935,18.46,57.935,50.836,0,36.919-36.067,55.379-80.939,55.379Zm-26.128-161.594h-3.692c-1.704,0-3.408,0-5.112.567v41.748h9.372c11.928,0,14.483-10.508,14.483-22.436,0-13.349-3.692-19.88-15.052-19.88Zm1.136,73.839h-9.94v54.812c2.272.567,4.26.852,7.952.852,13.916,0,19.312-8.52,19.312-28.115,0-16.188-4.544-27.548-17.324-27.548Z" fill="#fff" stroke="#eebe1c" stroke-miterlimit="10" stroke-width="3"/>
      <path d="m501.92,729.84c-68.727,0-102.807-36.919-102.807-97.694,0-64.468,32.375-106.783,105.646-106.783,75.543,0,103.091,40.611,103.942,103.943v2.271c0,68.159-38.339,98.263-106.782,98.263Zm1.704-168.978h-1.137c-14.199,0-17.607,17.04-17.607,64.751,0,48.563.852,67.875,17.04,68.728h.852c14.2,0,15.904-20.164,15.904-67.875,0-48.848-.853-64.752-15.052-65.604Z" fill="#fff" stroke="#eebe1c" stroke-miterlimit="10" stroke-width="3"/>
      <path d="m756.951,656.852l-.284,65.888h-83.779v-64.467l-61.059-130.071,97.126-.567,24.992,69.863,23.855-69.863h59.924l-60.775,129.218Z" fill="#fff" stroke="#eebe1c" stroke-miterlimit="10" stroke-width="3"/>
    </g>
  </g>
</svg>